<svg width="1024" height="1024" viewBox="0 0 1024 1024" fill="none" xmlns="http://www.w3.org/2000/svg">
<g clip-path="url(#clip0_16_2298)">
<path d="M0 0H1024V1024H0V0Z" fill="#1E78FF"/>
<mask id="mask0_16_2298" style="mask-type:luminance" maskUnits="userSpaceOnUse" x="174" y="243" width="676" height="539">
<path d="M849.159 243H174V781.17H849.159V243Z" fill="white"/>
</mask>
<g mask="url(#mask0_16_2298)">
<path d="M330.285 328.753C330.719 328.702 331.152 328.643 331.588 328.613C344.627 327.734 359.441 329.709 372.504 330.962C407.344 334.303 451.562 338.419 484.113 350.9C496.351 355.592 506.52 361.817 516.494 370.247C544.85 344.262 587.121 336.867 624.452 336.421C619.761 342.904 615.579 350.199 610.377 356.249C586.577 357.758 561.259 362.014 540.696 374.819C536.441 377.469 527.164 383.796 526.106 389.041C524.212 398.426 525.249 407.97 525.302 417.476L525.534 461.302L525.405 609.691V666.329C525.397 674.441 526.057 682.683 525.546 690.767L525.493 691.545C549.904 673.047 589.867 670.265 619.418 666.96L679.179 660.82C689.492 659.793 704.847 659.323 714.314 656.674C718.869 655.399 722.629 653.227 725.956 649.867C729.976 645.808 732.242 641.021 733.1 635.397C734.135 628.616 733.404 620.842 733.404 613.953L733.406 569.958L733.368 411.489C736.662 406.811 740.638 402.466 744.068 397.847C746.594 393.706 749.65 389.793 752.466 385.84C759.004 391.12 763.855 397.308 766.488 405.366C767.764 409.268 768.118 413.26 768.262 417.342C768.849 433.918 768.346 450.656 768.339 467.253V562.17L768.342 634.542C768.344 647.138 768.962 660.017 768.17 672.575C767.777 678.812 766.442 684.764 763.551 690.339C759.378 698.389 751.504 705.025 742.886 707.868C729.741 712.206 712.767 710.554 699.013 710.564L619.867 710.531C605.789 710.522 590.794 709.48 576.867 711.252C568.951 712.245 561.405 715.186 554.904 719.811C551.245 722.372 547.567 725.443 543.207 726.699C537.632 728.305 493.39 728.233 488.664 726.658C483.396 724.902 479.102 720.973 474.426 718.086C461.185 709.909 446.173 710.369 431.188 710.339L341.886 710.068C328.218 710.001 309.394 710.97 296.336 709.098C291.81 708.449 287.51 706.766 283.568 704.479C274.008 698.933 267.294 690.2 264.592 679.468C261.961 669.013 263.382 651.109 263.389 639.811L263.391 574.383L263.372 456.64C263.36 436.705 262.53 416.464 263.43 396.578C263.624 392.29 264.233 387.776 266.549 384.088C272.891 373.987 283.274 368.826 294.602 366.227C295.393 357.602 298.571 349.055 304.064 342.301C310.751 334.08 319.863 329.755 330.285 328.753ZM506.422 628.374C505.575 606.385 506.328 584.084 506.325 562.063C506.318 505.889 507.073 449.629 506.424 393.466C505.258 386.595 501.829 382.158 496.217 378.144C487.309 371.774 476.321 367.688 465.854 364.733C434.565 355.901 400.812 352.718 368.525 349.39C357.503 348.254 341.005 345.82 330.298 347.652C324.776 348.597 320.225 351.199 316.954 355.828C314.596 359.164 313.581 362.897 313.371 366.938C313.01 373.888 313.305 380.965 313.317 387.93L313.371 426.306L313.392 543.676L313.37 603.9C313.34 613.398 312.193 626.715 313.948 635.82C315.33 642.988 319.32 649.33 325.515 653.298C334.365 658.966 349.911 658.848 360.306 660.157L423.126 668.366C440.581 670.713 458.554 672.678 475.525 677.516C486.513 680.649 496.651 684.908 506.384 690.896L506.326 648.371C506.319 641.902 505.752 634.789 506.422 628.374Z" fill="white"/>
<path d="M389.056 388.11C394.898 387.974 401.165 387.401 406.962 388.133C408.872 388.375 411.875 388.948 413.01 390.683C416.324 395.751 421.92 414.183 424.415 421.092C431.548 440.846 439.455 460.6 445.866 480.586C446.411 482.284 448 487.279 447.424 488.874C446.919 490.273 445.588 491.216 444.234 491.691C440.609 492.96 431.344 493.199 427.83 491.491C422.412 488.856 420.394 477.903 418.477 472.674L408.234 472.565L379.447 472.542C377.343 477.888 375.851 487.562 370.981 490.904C367.832 493.066 358.551 493.159 354.878 492.332C352.604 491.82 351.394 490.754 350.222 488.804C351.062 478.575 359.115 459.891 362.89 449.339C368.858 432.657 374.682 415.887 380.85 399.28C382.822 393.971 383.617 390.6 389.056 388.11ZM387.781 450.02L399.975 450.037L410.185 450.078C408.411 445.391 401.359 421.368 399.008 419.339C394.872 429.091 390.542 439.812 387.781 450.02Z" fill="white"/>
<path d="M356.884 515.695C367.892 516.77 378.91 518.565 389.87 520.07L442.887 527.44C452.126 528.793 465.582 529.403 474.114 531.973C476.838 532.793 479.245 534.313 480.517 536.942C481.698 539.384 481.619 542.197 480.616 544.68C479.195 548.202 476.723 549.735 473.331 551.108C468.547 551.214 463.416 550.046 458.667 549.357L433.421 545.744C407.903 542.127 382.071 539.244 356.671 534.976C355.071 534.707 353.307 534.401 351.866 533.637C349.678 532.478 348.14 530.23 347.622 527.84C347.057 525.233 347.479 521.727 349.108 519.544C351.043 516.951 353.81 516.082 356.884 515.695Z" fill="white"/>
<path d="M356.144 559.733C382.635 562.724 409.116 566.75 435.51 570.533C447.127 572.198 458.984 573.066 470.521 575.149C472.47 575.501 474.61 576.072 476.287 577.163C478.268 578.452 479.831 581.034 480.28 583.328C480.805 586.007 480.162 588.644 478.595 590.865C476.7 593.551 474.59 594.304 471.477 594.958C446.568 592.02 421.696 588.011 396.844 584.556C388.371 583.361 379.892 582.209 371.407 581.099C366.02 580.405 360.36 579.96 355.059 578.794C353.048 578.351 351.431 577.455 349.677 576.406C348.884 575.098 348.053 573.784 347.659 572.291C346.958 569.629 347.215 566.489 348.723 564.142C350.516 561.352 353.004 560.307 356.144 559.733Z" fill="white"/>
<path d="M355.625 602.566C360.757 602.451 366.498 603.735 371.594 604.444L402.334 608.751L428.469 612.283C433.126 612.908 438.17 613.191 442.679 614.483C445.332 615.244 447.137 617.048 448.327 619.509C449.453 621.838 449.844 624.847 448.881 627.301C447.643 630.456 444.846 631.914 441.915 633.2C435.802 633.031 355.514 621.969 353.146 620.94C350.617 619.841 348.609 617.843 347.788 615.184C347.016 612.679 347.199 609.798 348.531 607.517C350.153 604.739 352.646 603.45 355.625 602.566Z" fill="white"/>
<path d="M753.631 259.658C757.637 259.362 762.026 259.716 765.581 261.735C768.766 263.543 770.673 266.553 771.638 270.023C777.624 291.552 745.936 359.17 733.698 378.239C729.933 384.106 725.423 389.173 720.485 394.073C715.935 398.59 710.124 402.278 704.439 405.191C700.899 407.005 684.463 412.399 683.15 413.604C682.804 413.921 682.687 414.421 682.456 414.83L682.8 415.564C687.842 418.237 702.474 416.108 709.018 416.945C710.83 417.177 712.186 417.511 713.327 418.978C713.455 420.22 713.368 421.135 712.877 422.273C709.371 430.393 703.388 438.763 698.073 445.753C675.187 475.855 647.503 493.697 612.649 507.067C609.856 510.956 607.751 515.533 605.49 519.764C601.047 528.017 596.752 536.348 592.608 544.755C589.858 550.329 587.354 556.161 583.63 561.168C581.667 563.809 579.162 566.039 576.777 568.29C569.86 573.971 563.093 583.327 554.859 586.961C553.229 587.68 551.081 588.22 549.4 587.36C547.846 586.564 546.994 584.967 546.624 583.331C545.01 576.191 576.609 504.699 581.046 492.526C583.246 486.487 582.377 479.771 582.643 473.462C582.846 468.862 583.328 464.279 584.087 459.737C590.275 423.533 607.234 389.739 628.185 359.88C652.168 325.7 680.282 295.426 716.733 274.449C728.256 267.818 740.457 261.98 753.631 259.658ZM594.269 505.988C595.082 505.58 595.885 505.149 596.675 504.697C597.158 504.418 597.631 504.13 598.09 503.811C601.514 501.429 604.24 498.359 606.472 494.859C610.419 488.667 613.607 481.801 617.047 475.309C621.801 466.417 626.671 457.588 631.655 448.823C646.632 422.278 662.757 396.397 679.984 371.254C685.139 363.668 713.854 326.244 714.918 321.768C715.089 321.051 715.058 321.067 715.048 320.443L714.33 319.564C713.707 319.52 713.096 319.445 712.472 319.501C705.358 324.063 698.86 331.214 693.014 337.311C655.756 376.166 623.825 428.619 601.509 477.622C598.076 485.16 593.13 493.963 591.516 502.074C591.22 503.562 591.274 504.299 592.103 505.561C592.848 505.763 593.492 505.988 594.269 505.988Z" fill="white"/>
</g>
</g>
<defs>
<clipPath id="clip0_16_2298">
<rect width="1024" height="1024" fill="white"/>
</clipPath>
</defs>
</svg>
