<svg width="540" height="538" viewBox="0 0 540 538" fill="none" xmlns="http://www.w3.org/2000/svg">
<path d="M185.732 40.9106C197.9 40.3039 210.264 40.7513 222.458 40.7496L290.325 40.7411L336.678 40.7595L351.286 40.7325C353.796 40.7278 356.424 40.5701 358.922 40.8028C360.54 40.9535 362.047 41.6954 363.326 42.6729C371.264 48.7434 374.413 63.7334 375.81 73.2854C378.853 94.0884 380.085 142.239 366.916 159.672C365.352 161.744 363.062 164.1 360.484 164.759C357.121 165.619 352.058 165.024 348.501 165.008L328.185 164.971L233.744 165.071L205.966 165.053C201.029 165.05 195.693 164.663 190.807 165.346C185.261 166.118 180.266 169.113 176.971 173.642C173.691 178.072 172.326 183.634 173.18 189.08C174.348 196.46 179.747 202.99 186.935 205.225C193.09 207.14 206.339 206.33 213.484 206.331C222.065 206.332 230.647 206.125 239.203 206.878C261.698 208.859 288.41 217.29 306.771 230.671L307.044 230.873L287.094 242.654L259.159 259.071C253.724 262.266 248.128 265.327 242.863 268.794L226.196 330.675C219.87 330.974 213.446 330.772 207.11 330.786C197.298 330.807 187.545 330.945 177.77 329.904C148.211 326.71 120.362 314.458 98.0336 294.825C69.1061 269.56 51.4021 233.834 48.818 195.512C46.1798 156.688 59.2696 118.435 85.1396 89.3684C110.826 60.3914 147.064 42.9343 185.732 40.9106Z" fill="url(#paint0_linear_92_1723)"/>
<path d="M355.714 285.591C373.279 320.365 376.984 359.801 364.799 396.985C352.842 433.619 326.842 464.013 292.504 481.498C278.933 488.434 264.342 493.158 249.282 495.493C237.883 497.276 226.588 497.194 215.093 497.199L183.867 497.207L138.917 497.219C131.233 497.217 123.451 497.455 115.775 497.159C107.421 497.454 98.9712 497.198 90.6057 497.201L41.3812 497.222L41.3525 372.751L74.6592 372.876C80.5972 372.896 86.6022 372.66 92.5287 372.965C104.567 372.662 116.66 372.896 128.703 372.896L193.079 372.812L216.495 372.823C221.084 372.828 226.024 373.197 230.544 372.447C234.769 371.744 238.654 369.692 241.617 366.599C244.86 363.235 246.289 359.416 247.336 354.944C257.865 353.337 268.315 351.006 278.781 349.022C290.334 346.832 301.992 344.958 313.457 342.349C318.139 336.579 322.435 330.437 326.835 324.451L345.71 298.998C349.015 294.554 352.158 289.82 355.714 285.591Z" fill="url(#paint1_linear_92_1723)"/>
<path d="M486.727 161.532C481.083 166.837 474.854 171.593 469.007 176.685L426.403 214.022L396.841 240.126C390.486 245.808 384.177 252.169 377.208 257.072C374.597 258.909 370.057 261.734 366.742 261.058C358.311 259.338 337.238 233.191 332.128 225.491C330.521 223.07 328.143 219.26 328.896 216.238C330.094 211.433 335.081 207.003 338.486 203.672C347.605 194.75 357.737 186.847 367.402 178.529L409.712 141.521C417.152 135.059 424.541 128.539 431.877 121.96C438.228 116.196 444.418 109.621 451.762 105.111C455.283 102.948 458.776 101.547 462.964 102.574C471.987 104.787 488.856 124.986 493.705 133.148C496.417 136.84 498.692 141.085 497.986 145.828C497.066 152.013 491.35 157.732 486.727 161.532Z" fill="url(#paint2_linear_92_1723)"/>
<path d="M486.728 161.532C486.35 159.92 487.286 159.193 488.035 157.893C490.088 154.327 489.568 147.505 490.017 143.439C490.264 141.207 490.936 138.916 490.993 136.683C491.021 135.561 490.872 134.517 490.556 133.443C490.529 133.354 490.501 133.265 490.474 133.176L491.013 132.261L491.876 132.151L492.144 132.772C492.82 133.254 492.864 133.198 493.705 133.148C496.417 136.839 498.693 141.084 497.987 145.828C497.066 152.013 491.35 157.731 486.728 161.532Z" fill="#2B80FE"/>
<path d="M315.408 238.922C322.416 241.808 336.122 258.094 341.652 264.211C343.424 266.171 346.855 269.226 347.939 271.518C348.12 271.902 348.107 271.92 348.183 272.273C346.761 275.449 341.318 281.363 338.915 284.452C335.372 288.987 332.045 293.688 328.948 298.538C324.025 306.314 320.076 314.563 316.037 322.816C313.862 327.263 311.726 332.185 308.967 336.301C299.141 338.634 288.985 339.484 279.081 341.444C260.614 345.098 243.242 351.564 226.093 359.231C225.984 359.165 225.64 358.968 225.565 358.88C225.253 358.515 225.825 357.166 225.797 356.427C226.915 355.004 228.937 353.647 230.326 352.44L241.518 342.707L263.65 323.432C268.174 319.46 272.643 315.083 277.545 311.6C280.629 311.701 283.914 311.983 286.92 311.149C291.971 309.747 294.161 305.463 296.524 301.255C295.454 298.576 294.423 296.026 292.436 293.877C290.177 291.434 287.079 289.762 283.715 289.663C279.233 289.53 275.989 291.955 272.886 294.825C271.647 298.31 271.741 302.118 271.836 305.759C263.657 313.19 255.164 320.299 246.784 327.502C240.571 332.842 234.475 338.335 228.187 343.585C227.679 343.477 227.179 343.359 226.677 343.228C226.538 342.724 226.431 342.376 226.122 341.942C226.047 341.836 225.962 341.737 225.882 341.634C238.107 320.143 247.58 296.396 252.115 272.026C255.277 270.232 258.784 268.944 262.148 267.582C267.815 265.286 273.509 263.071 279.009 260.391C291.68 254.215 303.38 246.226 315.408 238.922Z" fill="url(#paint3_linear_92_1723)"/>
<path d="M220.252 350.389C222.253 347.58 224.027 344.546 225.882 341.634C225.962 341.737 226.046 341.836 226.122 341.942C226.431 342.377 226.537 342.724 226.677 343.228C227.178 343.36 227.679 343.478 228.186 343.585C225.637 345.957 222.92 348.153 220.252 350.389Z" fill="#2B80FE"/>
<path d="M225.797 356.427C225.825 357.166 225.253 358.516 225.565 358.88C225.64 358.968 225.984 359.166 226.093 359.232C223.615 360.483 221.047 361.548 218.5 362.647C220.988 360.658 223.365 358.489 225.797 356.427Z" fill="#2B80FE"/>
<defs>
<linearGradient id="paint0_linear_92_1723" x1="48.4844" y1="185.716" x2="372.101" y2="185.716" gradientUnits="userSpaceOnUse">
<stop stop-color="#1E78FF"/>
<stop offset="1" stop-color="#8AB9FF"/>
</linearGradient>
<linearGradient id="paint1_linear_92_1723" x1="41.3525" y1="391.45" x2="366.199" y2="391.45" gradientUnits="userSpaceOnUse">
<stop stop-color="#1E78FF"/>
<stop offset="1" stop-color="#8AB9FF"/>
</linearGradient>
<linearGradient id="paint2_linear_92_1723" x1="324.588" y1="223.015" x2="498.728" y2="234.819" gradientUnits="userSpaceOnUse">
<stop stop-color="#8AB9FF"/>
<stop offset="1" stop-color="#1E78FF"/>
</linearGradient>
<linearGradient id="paint3_linear_92_1723" x1="229.304" y1="296.31" x2="345.492" y2="304.267" gradientUnits="userSpaceOnUse">
<stop stop-color="#287EFF"/>
<stop offset="1" stop-color="#84B6FF"/>
</linearGradient>
</defs>
</svg>
