<svg width="719" height="218" viewBox="0 0 719 218" fill="none" xmlns="http://www.w3.org/2000/svg">
<path d="M0.311035 176.189H62.2322C66.2015 176.189 69.1121 173.014 69.1121 169.309C69.1121 165.34 65.9377 162.164 62.2322 162.164H51.1191C24.3908 162.164 2.69224 140.465 2.69224 113.737C2.69224 87.0104 24.3908 65.311 51.1191 65.311H106.424V106.857H51.1191C47.4136 106.857 44.2374 110.033 44.2374 113.737C44.2374 117.707 47.4136 120.618 51.1191 120.618H62.2322C88.9605 120.618 110.659 142.582 110.659 169.309C110.659 196.036 88.9605 217.735 62.2322 217.735H0.311035V176.189Z" fill="#1E78FF"/>
<path d="M161.061 212.178C152.064 208.474 144.125 202.916 136.98 196.036C130.1 189.156 124.807 180.952 120.838 171.955C117.133 162.693 115.016 152.902 115.016 142.582C115.016 132.526 117.133 122.735 120.838 113.208C124.807 104.476 130.1 96.2722 136.98 89.3921C144.125 82.5117 152.064 76.9545 161.061 73.2499C170.323 69.2803 180.379 67.1633 190.434 67.1633C202.607 67.1633 215.044 70.3391 225.629 75.896C236.214 81.4532 245.212 89.6565 252.092 99.1831L219.808 122.205C212.927 112.679 202.078 106.857 190.434 106.857C170.852 106.857 154.71 123 154.71 142.582C154.71 162.429 170.852 178.306 190.434 178.306C202.342 178.306 213.192 172.484 219.808 162.958L252.622 185.451C238.596 205.827 215.309 218 190.434 218C180.379 218 170.323 216.148 161.061 212.178Z" fill="#1E78FF"/>
<path d="M267.821 117.443C272.055 107.387 278.406 98.1249 286.345 90.1862C294.019 82.2473 303.281 76.161 313.601 71.6623C324.186 67.1636 335.3 65.0466 346.943 65.0466V104.741C321.539 104.741 300.634 125.381 300.634 151.05V216.148H260.941V151.05C260.941 139.406 263.322 128.028 267.821 117.443Z" fill="#1E78FF"/>
<path d="M396.028 63.4587V216.148H356.07V76.6901L396.028 63.4587Z" fill="#1E78FF"/>
<path d="M563.303 171.696C559.334 180.693 554.041 188.897 547.161 195.777C540.016 202.657 532.077 207.95 523.08 211.919C513.818 215.889 503.762 217.741 493.707 217.741C483.651 217.741 473.595 215.889 464.333 211.919C455.336 208.214 447.397 202.657 440.252 195.777C433.372 188.897 428.08 180.693 424.11 171.696C420.405 162.434 418.288 152.643 418.288 142.323V13.9794L457.982 0.748047V75.9017C460.099 74.8432 462.216 73.7847 464.333 72.9909C473.595 69.0215 483.651 66.9045 493.707 66.9045C504.027 66.9045 513.818 69.0215 523.08 72.9909C532.077 76.6957 540.281 81.988 547.161 89.1331C554.041 96.0133 559.334 103.952 563.303 112.949C567.272 122.211 569.125 132.267 569.125 142.323C569.125 152.643 567.272 162.434 563.303 171.696ZM493.707 178.047C513.289 178.047 529.431 162.17 529.431 142.323C529.431 122.74 513.289 106.598 493.707 106.598C474.124 106.598 457.982 122.74 457.982 142.323C457.982 162.17 474.124 178.047 493.707 178.047Z" fill="#1E78FF"/>
<path d="M591.414 195.242C577.389 181.217 569.451 162.428 569.451 142.581C569.451 122.47 577.389 103.946 591.414 89.6562C605.44 75.631 624.228 67.957 644.075 67.957C663.922 67.957 682.71 75.631 696.735 89.6562C711.025 103.946 718.699 122.47 718.699 142.581V161.634H613.378C619.994 171.955 631.108 178.57 644.075 178.57C654.131 178.57 663.657 174.601 670.537 167.192L698.323 193.654C691.443 201.064 683.24 206.621 674.242 210.855C664.716 214.824 654.66 216.941 644.075 216.941C624.228 216.941 605.44 209.267 591.414 195.242ZM674.772 123.264C668.421 113.208 657.042 106.328 644.075 106.328C631.109 106.328 619.994 113.208 613.378 123.264H674.772Z" fill="#1E78FF"/>
</svg>
