<?xml version="1.0" encoding="utf-8" ?>
<svg xmlns="http://www.w3.org/2000/svg" xmlns:xlink="http://www.w3.org/1999/xlink" width="675" height="538">
	<clipPath id="cl_3">
		<rect x="3.0517578e-05" width="675.15918" height="538.17041"/>
	</clipPath>
	<g clip-path="url(#cl_3)">
		<path fill="#0078FE" transform="translate(-169.65 -120.452)" d="M325.935 206.205C326.369 206.154 326.802 206.095 327.238 206.065C340.277 205.186 355.091 207.161 368.154 208.414C402.994 211.755 447.212 215.871 479.763 228.352C492.001 233.044 502.17 239.269 512.144 247.699C540.5 221.714 582.771 214.319 620.102 213.873C615.411 220.356 611.229 227.651 606.027 233.701C582.227 235.21 556.909 239.466 536.346 252.271C532.091 254.921 522.814 261.248 521.756 266.493C519.862 275.878 520.899 285.422 520.952 294.928L521.184 338.754L521.055 487.143L521.055 543.781C521.047 551.893 521.707 560.135 521.196 568.219L521.143 568.997C545.554 550.499 585.517 547.717 615.068 544.412L674.829 538.272C685.142 537.245 700.497 536.775 709.964 534.126C714.519 532.851 718.279 530.679 721.606 527.319C725.626 523.26 727.892 518.473 728.75 512.849C729.785 506.068 729.054 498.294 729.054 491.405L729.056 447.41L729.018 288.941C732.312 284.263 736.288 279.918 739.718 275.299C742.244 271.158 745.3 267.245 748.116 263.292C754.654 268.572 759.505 274.76 762.138 282.818C763.414 286.72 763.768 290.712 763.912 294.794C764.499 311.37 763.996 328.108 763.989 344.705L763.989 439.622L763.992 511.994C763.994 524.59 764.612 537.469 763.82 550.027C763.427 556.264 762.092 562.216 759.201 567.791C755.028 575.841 747.154 582.477 738.536 585.32C725.391 589.658 708.417 588.006 694.663 588.016L615.517 587.983C601.439 587.974 586.444 586.932 572.517 588.704C564.601 589.697 557.055 592.638 550.554 597.263C546.895 599.824 543.217 602.895 538.857 604.151C533.282 605.757 489.04 605.685 484.314 604.11C479.046 602.354 474.752 598.425 470.076 595.538C456.835 587.361 441.823 587.821 426.838 587.791L337.536 587.52C323.868 587.453 305.044 588.422 291.986 586.55C287.46 585.901 283.16 584.218 279.218 581.931C269.658 576.385 262.944 567.652 260.242 556.92C257.611 546.465 259.032 528.561 259.039 517.263L259.041 451.835L259.022 334.092C259.01 314.157 258.18 293.916 259.08 274.03C259.274 269.742 259.883 265.228 262.199 261.54C268.541 251.439 278.924 246.278 290.252 243.679C291.043 235.054 294.221 226.507 299.714 219.753C306.401 211.532 315.513 207.207 325.935 206.205ZM502.072 505.826C501.225 483.837 501.978 461.536 501.975 439.515C501.968 383.341 502.723 327.081 502.074 270.918C500.908 264.047 497.479 259.61 491.867 255.596C482.959 249.226 471.971 245.14 461.504 242.185C430.215 233.353 396.462 230.17 364.175 226.842C353.153 225.706 336.655 223.272 325.948 225.104C320.426 226.049 315.875 228.651 312.604 233.28C310.246 236.616 309.231 240.349 309.021 244.39C308.66 251.34 308.955 258.417 308.967 265.382L309.021 303.758L309.042 421.128L309.02 481.352C308.99 490.85 307.843 504.167 309.598 513.272C310.98 520.44 314.97 526.782 321.165 530.75C330.015 536.418 345.561 536.3 355.956 537.609L418.776 545.818C436.231 548.165 454.204 550.13 471.175 554.968C482.163 558.101 492.301 562.36 502.034 568.348L501.976 525.823C501.969 519.354 501.402 512.241 502.072 505.826Z"/>
		<path fill="#0078FE" transform="translate(-169.65 -120.452)" d="M384.706 265.562C390.548 265.426 396.815 264.853 402.612 265.585C404.522 265.827 407.525 266.4 408.66 268.135C411.974 273.203 417.57 291.635 420.065 298.544C427.198 318.298 435.105 338.052 441.516 358.038C442.061 359.736 443.65 364.731 443.074 366.326C442.569 367.725 441.238 368.668 439.884 369.143C436.259 370.412 426.994 370.651 423.48 368.943C418.062 366.308 416.044 355.355 414.127 350.126L403.884 350.017L375.097 349.994C372.993 355.34 371.501 365.014 366.631 368.356C363.482 370.518 354.201 370.611 350.528 369.784C348.254 369.272 347.044 368.206 345.872 366.256C346.712 356.027 354.765 337.343 358.54 326.791C364.508 310.109 370.332 293.339 376.5 276.732C378.472 271.423 379.267 268.052 384.706 265.562ZM383.431 327.472L395.625 327.489L405.835 327.53C404.061 322.843 397.009 298.82 394.658 296.791C390.522 306.543 386.192 317.264 383.431 327.472Z"/>
		<path fill="#0078FE" transform="translate(-169.65 -120.452)" d="M352.534 393.147C363.542 394.222 374.56 396.017 385.52 397.522L438.537 404.892C447.776 406.245 461.232 406.855 469.764 409.425C472.488 410.245 474.895 411.765 476.167 414.394C477.348 416.836 477.269 419.649 476.266 422.132C474.845 425.654 472.373 427.187 468.981 428.56C464.197 428.666 459.066 427.498 454.317 426.809L429.071 423.196C403.553 419.579 377.721 416.696 352.321 412.428C350.721 412.159 348.957 411.853 347.516 411.089C345.328 409.93 343.79 407.682 343.272 405.292C342.707 402.685 343.129 399.179 344.758 396.996C346.693 394.403 349.46 393.534 352.534 393.147Z"/>
		<path fill="#0078FE" transform="translate(-169.65 -120.452)" d="M351.794 437.185C378.285 440.176 404.766 444.202 431.16 447.985C442.777 449.65 454.634 450.518 466.171 452.601C468.12 452.953 470.26 453.524 471.937 454.615C473.918 455.904 475.481 458.486 475.93 460.78C476.455 463.459 475.812 466.096 474.245 468.317C472.35 471.003 470.24 471.756 467.127 472.41C442.218 469.472 417.346 465.463 392.494 462.008C384.021 460.813 375.542 459.661 367.057 458.551C361.67 457.857 356.01 457.412 350.709 456.246C348.698 455.803 347.081 454.907 345.327 453.858C344.534 452.55 343.703 451.236 343.309 449.743C342.608 447.081 342.865 443.941 344.373 441.594C346.166 438.804 348.654 437.759 351.794 437.185Z"/>
		<path fill="#0078FE" transform="translate(-169.65 -120.452)" d="M351.275 480.018C356.407 479.903 362.148 481.187 367.244 481.896L397.984 486.203L424.119 489.735C428.776 490.36 433.82 490.643 438.329 491.935C440.982 492.696 442.787 494.5 443.977 496.961C445.103 499.29 445.494 502.299 444.531 504.753C443.293 507.908 440.496 509.366 437.565 510.652C431.452 510.483 351.164 499.421 348.796 498.392C346.267 497.293 344.259 495.295 343.438 492.636C342.666 490.131 342.849 487.25 344.181 484.969C345.803 482.191 348.296 480.902 351.275 480.018Z"/>
		<path fill="#0078FE" transform="translate(-169.65 -120.452)" d="M749.281 137.11C753.287 136.814 757.676 137.168 761.231 139.187C764.416 140.995 766.323 144.005 767.288 147.475C773.274 169.004 741.586 236.622 729.348 255.691C725.583 261.558 721.073 266.625 716.135 271.525C711.585 276.042 705.774 279.73 700.089 282.643C696.549 284.457 680.113 289.851 678.8 291.056C678.454 291.373 678.337 291.873 678.106 292.282L678.45 293.016C683.492 295.689 698.124 293.56 704.668 294.397C706.48 294.629 707.836 294.963 708.977 296.43C709.105 297.672 709.018 298.587 708.527 299.725C705.021 307.845 699.038 316.215 693.723 323.205C670.837 353.307 643.153 371.149 608.299 384.519C605.506 388.408 603.401 392.985 601.14 397.216C596.697 405.469 592.402 413.8 588.258 422.207C585.508 427.781 583.004 433.613 579.28 438.62C577.317 441.261 574.812 443.491 572.427 445.742C565.51 451.423 558.743 460.779 550.509 464.413C548.879 465.132 546.731 465.672 545.05 464.812C543.496 464.016 542.644 462.419 542.274 460.783C540.66 453.643 572.259 382.151 576.696 369.978C578.896 363.939 578.027 357.223 578.293 350.914C578.496 346.314 578.978 341.731 579.737 337.189C585.925 300.985 602.884 267.191 623.835 237.332C647.818 203.152 675.932 172.878 712.383 151.901C723.906 145.27 736.107 139.432 749.281 137.11ZM589.919 383.44C590.732 383.032 591.535 382.601 592.325 382.149C592.808 381.87 593.281 381.582 593.74 381.263C597.164 378.881 599.89 375.811 602.122 372.311C606.069 366.119 609.257 359.253 612.697 352.761C617.451 343.869 622.321 335.04 627.305 326.275C642.282 299.73 658.407 273.849 675.634 248.706C680.789 241.12 709.504 203.696 710.568 199.22C710.739 198.503 710.708 198.519 710.698 197.895L709.98 197.016C709.357 196.972 708.746 196.897 708.122 196.953C701.008 201.515 694.51 208.666 688.664 214.763C651.406 253.618 619.475 306.071 597.159 355.074C593.726 362.612 588.78 371.415 587.166 379.526C586.87 381.014 586.924 381.751 587.753 383.013C588.498 383.215 589.142 383.44 589.919 383.44Z"/>
	</g>
</svg>
